<?xml version="1.0" encoding="UTF-8" standalone="no" ?>
<!DOCTYPE svg PUBLIC "-//W3C//DTD SVG 1.1//EN" "http://www.w3.org/Graphics/SVG/1.1/DTD/svg11.dtd">
<svg xmlns="http://www.w3.org/2000/svg" xmlns:xlink="http://www.w3.org/1999/xlink" version="1.1" width="541.1232031249999" height="448.15999999999997" xml:space="preserve">
<desc>Created with Fabric.js 1.6.0-rc.1</desc>
<defs></defs>
<g style="stroke: none; stroke-width: 1; stroke-dasharray: none; stroke-linecap: butt; stroke-linejoin: miter; stroke-miterlimit: 10; fill: none; fill-rule: nonzero; opacity: 1;" transform="translate(129.07000000000002 61.979999999999954) scale(0.09 0.09)" >
  <path d="M 1963.178 162.867 s 796.167 -89.84 1143.14 136.314 c 0 0 -158 -43.374 -430.609 -21.69 c -0.001 0 -114.626 -114.624 -712.531 -114.624 z M 3121.8 435.483 l -514.931 -13.11 l 60.58 -92.26 s 15.142 -30.207 68.845 -30.932 c 0 0 268.502 3.396 349.74 19.92 c 0 0 46.813 -2.755 44.059 34.426 l -8.293 81.956 z" style="stroke: none; stroke-width: 1; stroke-dasharray: none; stroke-linecap: butt; stroke-linejoin: miter; stroke-miterlimit: 10; fill: #190a01; fill-rule: nonzero; opacity: 1;" transform=" matrix(0.9999999690428075 0 0 0.9999999690428075 0 0) " stroke-linecap="round" />
  <path d="M 2581.043 297.322 l -82.954 126.492 h -216.87 s -41.993 8.743 -21.342 -29.805 c 0 0 45.438 -90.885 81.237 -90.885 l 239.929 -5.802 z" style="stroke: none; stroke-width: 1; stroke-dasharray: none; stroke-linecap: butt; stroke-linejoin: miter; stroke-miterlimit: 10; fill: #e5a20c; fill-rule: nonzero; opacity: 1;" transform=" matrix(0.9999999690428075 0 0 0.9999999690428075 0 0) " stroke-linecap="round" />
  <path d="M 3218.221 510.473 l -28.916 95.34 h -967.981 s -23.406 -28.895 -30.29 -82.598 c 0 0 185.882 63.834 249.224 -32.8 l 777.963 20.058 z" style="stroke: none; stroke-width: 1; stroke-dasharray: none; stroke-linecap: butt; stroke-linejoin: miter; stroke-miterlimit: 10; fill: #190a01; fill-rule: nonzero; opacity: 1;" transform=" matrix(0.9999999690428075 0 0 0.9999999690428075 0 0) " stroke-linecap="round" />
  <path d="M 3230.267 554.728 s -28.738 130.725 -60.416 169.279 c 0 0 -12.306 24.732 -81.144 23.365 l -239.545 0.032 s -45.425 2.688 -55.063 6.816 c 0 0 -37.152 17.896 -67.449 15.14 c 0 0 -34.419 1.998 -49.567 -13.15 c 0 0 -17.89 -10.396 -70.212 -10.396 h -371.089 l 18.382 54.284 s 423.555 56.913 852.154 -9.171 c -0.001 0 115.341 2.178 123.949 -236.2 z M 2141.466 507.738 s -20.658 -223.063 -210.67 -218.927 c 0 0 -239.586 6.884 -207.922 333.218 c 0 0 2.625 -282.27 207.854 -294.662 c 0 0 125.364 -19.28 210.738 180.37 z" style="stroke: none; stroke-width: 1; stroke-dasharray: none; stroke-linecap: butt; stroke-linejoin: miter; stroke-miterlimit: 10; fill: #190a01; fill-rule: nonzero; opacity: 1;" transform=" matrix(0.9999999690428075 0 0 0.9999999690428075 0 0) " stroke-linecap="round" />
  <path d="M 2085.008 455.389 s -37.174 -91.308 -145.954 -88.054 c 0 0 -173.496 -4.86 -180.38 232.313 c 0 0 2.646 98.109 88.074 135.283 c 0 0 -55.022 -46.123 -49.513 -135.283 c 0 0 -5.523 -163.188 143.198 -197.928 c 0 0 83.988 -19.332 144.575 53.669 z M 1652.655 599.648 l -530.12 5.857 s -59.206 19.217 -90.87 -150.116 c 0 0 39.922 125.329 115.657 125.329 l 450.256 2.756 s 39.929 -6.193 55.077 16.174 z M 1666.758 803.783 l 74.019 81.238 l -794.233 -126.678 z M 1645.778 193.812 s 404.797 -77.108 590.002 -59.213 c 0 0 -175.553 -161.096 -755.234 -130.806 c 0 0 107.4 104.645 165.232 190.019 z M 1575.546 222.215 s -77.109 -130.3 -117.038 -160.59 c 0 0 -37.181 -55.077 -167.985 -17.896 c 0 0 -152.838 35.793 -163.852 89.496 c 0 0 -22.039 93.632 -17.902 125.296 l 466.777 -36.306 z M 1057.819 167.65 s -30.29 63.336 -26.154 90.87 c 0 0 -188.646 41.312 -223.07 70.233 c 0 0 108.459 -109.177 223.07 -166.612 c 0 0 37.618 -21.253 26.154 5.51 z" style="stroke: none; stroke-width: 1; stroke-dasharray: none; stroke-linecap: butt; stroke-linejoin: miter; stroke-miterlimit: 10; fill: #190a01; fill-rule: nonzero; opacity: 1;" transform=" matrix(0.9999999690428075 0 0 0.9999999690428075 0 0) " stroke-linecap="round" />
  <path d="M 820.995 288.749 s -142.182 50.817 9.557 107.037 c 0 0 -82.059 -35.041 -130.389 13.85 c 0 0 -43.647 40.339 -91.15 15.552 c 0 0 -52.391 -34.146 -81.307 -41.364 c 0 0 -36.148 -7.238 -76.419 16.517 c 0 0 46.471 -54.73 127.019 -24.787 c 0 0 81.58 50.6 111.535 3.104 c 0 0 68.441 -98.221 131.154 -89.91 z M 464.706 412.733 s 43.381 15.087 41.31 42.656 c 0 0 -1.988 20.337 -20.616 26.53 c 0 0 -35.145 2.699 -59.932 -26.53 c 0 0 -116.695 -107.721 -218.927 18.272 c 0 0 -45.445 69.192 -82.619 15.489 c 0 0 -35.458 -55.911 -123.922 15.49 c 0 0 75.387 -86.406 127.019 -29.948 c 0 0 32.014 52.206 73.322 -13.65 c 0 0 79.517 -141.545 233.385 -27.803 c 0 0 46.472 35.26 46.472 21.827 c -0.002 0 23.753 -6.192 -15.492 -42.333 z M 1031.665 617.892 s -44.372 164.732 -282.27 117.039 c 0 0 -128.059 -39.93 -207.923 37.18 c 13.173 -17.254 70.82 -105.19 170.741 -99.135 c 0 0 216.175 50.94 319.452 -55.084 z" style="stroke: none; stroke-width: 1; stroke-dasharray: none; stroke-linecap: butt; stroke-linejoin: miter; stroke-miterlimit: 10; fill: #8e000a; fill-rule: nonzero; opacity: 1;" transform=" matrix(0.9999999690428075 0 0 0.9999999690428075 0 0) " stroke-linecap="round" />
  <path d="M 1002.749 473.32 s -108.78 -8.265 -150.09 44.058 c 0 0 -106.02 126.678 -241.809 54.537 c -6.166 -3.27 -159.563 -131.64 -293.814 -55.111 c 0 0 -112.902 90.707 -206.541 13.973 c 0 0 -27.412 -19.7 -58.864 -13.965 c 0 0 43.724 6.076 63 37.748 c 0 0 88.52 75.729 210.67 -17.896 c 0 0 132.316 -59.18 271.256 56.45 c 0 0 99.08 79.722 258.863 -50.278 c 0.001 0 55.071 -69.988 147.329 -69.516 z" style="stroke: none; stroke-width: 1; stroke-dasharray: none; stroke-linecap: butt; stroke-linejoin: miter; stroke-miterlimit: 10; fill: #8e000a; fill-rule: nonzero; opacity: 1;" transform=" matrix(0.9999999690428075 0 0 0.9999999690428075 0 0) " stroke-linecap="round" />
  <path d="M 657.138 665.402 s -173.496 -82.62 -265.747 -47.51 c 0 0 -34.419 9.646 -70.218 45.439 c 0 0 -35.807 39.928 -56.458 39.928 c 0 0 53.703 34.426 115.664 -19.271 c 0 0 38.555 -48.192 78.483 -12.395 c 0 0 4.818 6.192 2.058 17.904 c 0 0 -5.51 16.52 -24.78 11.012 c 0 0 -26.161 -8.265 -39.929 23.406 c 0 0 26.154 -20.658 59.896 0 c 0 0 38.556 24.786 75.045 -6.884 c -0.001 0 74.689 -55.764 125.986 -51.63 z M 1132.181 306.31 S 1016.64 264.62 917.997 332.2 c 0 0 -128.864 72.298 -160.311 13.222 c 0 0 42.459 99.723 187.578 21.082 c 0 0 94.871 -62.62 186.917 -60.192 z M 256.128 654.286 s -59.896 -61.976 -117.038 -23.681 c 0 0 -64.024 48.193 -119.103 -8.258 c 0 0 55.761 93.633 129.432 59.207 c 0 0 57.176 -45.437 106.709 -27.268 z" style="stroke: none; stroke-width: 1; stroke-dasharray: none; stroke-linecap: butt; stroke-linejoin: miter; stroke-miterlimit: 10; fill: #8e000a; fill-rule: nonzero; opacity: 1;" transform=" matrix(0.9999999690428075 0 0 0.9999999690428075 0 0) " stroke-linecap="round" />
</g>
  <g transform="translate(108.6 128.89) scale(5.18 4.45)">
   <text font-family="MANIFESTO" font-size="40" font-weight="normal" style="stroke: none; stroke-width: 1; stroke-dasharray: none; stroke-linecap: butt; stroke-linejoin: miter; stroke-miterlimit: 10; fill: #3d2385; fill-rule: nonzero; opacity: 1;" ><tspan x="-18.54" y="8.98" style="stroke: none; stroke-width: 0; stroke-dasharray: none; stroke-linecap: butt; stroke-linejoin: miter; stroke-miterlimit: 4; fill: #3d2385; fill-rule: ; opacity: 1;">g</tspan></text>
 </g>
<g style="stroke: none; stroke-width: 1; stroke-dasharray: none; stroke-linecap: butt; stroke-linejoin: miter; stroke-miterlimit: 10; fill: none; fill-rule: nonzero; opacity: 1;" transform="translate(186.59000000000003 282.4) rotate(226.58) scale(2.64 2.64)" >
  <path d="M 41 0 c -9.374 0 -17 7.626 -17 17 c 0 3.195 0.902 6.175 2.441 8.731 L 0.586 51.586 c -0.781 0.781 -0.781 2.047 0 2.828 C 0.977 54.805 1.488 55 2 55 s 1.023 -0.195 1.414 -0.586 L 7 50.828 l 6.586 6.586 C 13.977 57.805 14.488 58 15 58 s 1.023 -0.195 1.414 -0.586 c 0.781 -0.781 0.781 -2.047 0 -2.828 L 9.828 48 L 12 45.828 l 4.586 4.586 C 16.977 50.805 17.488 51 18 51 s 1.023 -0.195 1.414 -0.586 c 0.781 -0.781 0.781 -2.047 0 -2.828 L 14.828 43 L 17 40.828 l 6.586 6.586 C 23.977 47.805 24.488 48 25 48 s 1.023 -0.195 1.414 -0.586 c 0.781 -0.781 0.781 -2.047 0 -2.828 L 19.828 38 l 9.075 -9.075 C 31.988 32.054 36.269 34 41 34 c 9.374 0 17 -7.626 17 -17 S 50.374 0 41 0 z M 41 30 c -7.168 0 -13 -5.832 -13 -13 S 33.832 4 41 4 s 13 5.832 13 13 S 48.168 30 41 30 z" style="stroke: none; stroke-width: 1; stroke-dasharray: none; stroke-linecap: butt; stroke-linejoin: miter; stroke-miterlimit: 10; fill: #D8A852; fill-rule: nonzero; opacity: 1;" transform=" matrix(1 0 0 1 0 0) " stroke-linecap="round" />
</g>
  <g transform="translate(83.22 189.11) rotate(358.72) scale(3.81 3.14)">
   <text font-family="ADAMCG PRO" font-size="40" font-weight="normal" style="stroke: none; stroke-width: 1; stroke-dasharray: none; stroke-linecap: butt; stroke-linejoin: miter; stroke-miterlimit: 10; fill: #1c81ad; fill-rule: nonzero; opacity: 1;" ><tspan x="-13.54" y="8.98" style="stroke: none; stroke-width: 0; stroke-dasharray: none; stroke-linecap: butt; stroke-linejoin: miter; stroke-miterlimit: 4; fill: #1c81ad; fill-rule: ; opacity: 1;">c</tspan></text>
 </g>
  <g transform="translate(347.64 159.7)">
   <text font-family="Neuropol" font-size="40" font-weight="normal" style="stroke: none; stroke-width: 1; stroke-dasharray: none; stroke-linecap: butt; stroke-linejoin: miter; stroke-miterlimit: 10; fill: #000000; fill-rule: nonzero; opacity: 1;" ><tspan x="-70.5" y="8.98" style="stroke: none; stroke-width: 0; stroke-dasharray: none; stroke-linecap: butt; stroke-linejoin: miter; stroke-miterlimit: 4; fill: #000000; fill-rule: ; opacity: 1;">a</tspan><tspan x="-40.44" y="8.98" style="stroke: none; stroke-width: 0; stroke-dasharray: none; stroke-linecap: butt; stroke-linejoin: miter; stroke-miterlimit: 4; fill: #000000; fill-rule: ; opacity: 1;">p</tspan><tspan x="-11.92" y="8.98" style="stroke: none; stroke-width: 0; stroke-dasharray: none; stroke-linecap: butt; stroke-linejoin: miter; stroke-miterlimit: 4; fill: #000000; fill-rule: ; opacity: 1;">p</tspan><tspan x="16.59" y="8.98" style="stroke: none; stroke-width: 0; stroke-dasharray: none; stroke-linecap: butt; stroke-linejoin: miter; stroke-miterlimit: 4; fill: #000000; fill-rule: ; opacity: 1;">p</tspan><tspan x="45.11" y="8.98" style="stroke: none; stroke-width: 0; stroke-dasharray: none; stroke-linecap: butt; stroke-linejoin: miter; stroke-miterlimit: 4; fill: #000000; fill-rule: ; opacity: 1;">s</tspan></text>
 </g>
  <g transform="translate(359.28 207.96) scale(0.79 0.86)">
   <text font-family="Interlude" font-size="40" font-weight="normal" style="stroke: none; stroke-width: 1; stroke-dasharray: none; stroke-linecap: butt; stroke-linejoin: miter; stroke-miterlimit: 10; fill: #000000; fill-rule: nonzero; opacity: 1;" ><tspan x="-218.03" y="8.98" style="stroke: none; stroke-width: 0; stroke-dasharray: none; stroke-linecap: butt; stroke-linejoin: miter; stroke-miterlimit: 4; fill: #000000; fill-rule: ; opacity: 1;">g</tspan><tspan x="-194.61" y="8.98" style="stroke: none; stroke-width: 0; stroke-dasharray: none; stroke-linecap: butt; stroke-linejoin: miter; stroke-miterlimit: 4; fill: #000000; fill-rule: ; opacity: 1;">e</tspan><tspan x="-172.34" y="8.98" style="stroke: none; stroke-width: 0; stroke-dasharray: none; stroke-linecap: butt; stroke-linejoin: miter; stroke-miterlimit: 4; fill: #000000; fill-rule: ; opacity: 1;">t</tspan><tspan x="-160.43" y="8.98" style="stroke: none; stroke-width: 0; stroke-dasharray: none; stroke-linecap: butt; stroke-linejoin: miter; stroke-miterlimit: 4; fill: #000000; fill-rule: ; opacity: 1;"> </tspan><tspan x="-150.51" y="8.98" style="stroke: none; stroke-width: 0; stroke-dasharray: none; stroke-linecap: butt; stroke-linejoin: miter; stroke-miterlimit: 4; fill: #000000; fill-rule: ; opacity: 1;">t</tspan><tspan x="-138.59" y="8.98" style="stroke: none; stroke-width: 0; stroke-dasharray: none; stroke-linecap: butt; stroke-linejoin: miter; stroke-miterlimit: 4; fill: #000000; fill-rule: ; opacity: 1;">h</tspan><tspan x="-115.12" y="8.98" style="stroke: none; stroke-width: 0; stroke-dasharray: none; stroke-linecap: butt; stroke-linejoin: miter; stroke-miterlimit: 4; fill: #000000; fill-rule: ; opacity: 1;">e</tspan><tspan x="-92.85" y="8.98" style="stroke: none; stroke-width: 0; stroke-dasharray: none; stroke-linecap: butt; stroke-linejoin: miter; stroke-miterlimit: 4; fill: #000000; fill-rule: ; opacity: 1;"> </tspan><tspan x="-82.93" y="8.98" style="stroke: none; stroke-width: 0; stroke-dasharray: none; stroke-linecap: butt; stroke-linejoin: miter; stroke-miterlimit: 4; fill: #000000; fill-rule: ; opacity: 1;">k</tspan><tspan x="-63.83" y="8.98" style="stroke: none; stroke-width: 0; stroke-dasharray: none; stroke-linecap: butt; stroke-linejoin: miter; stroke-miterlimit: 4; fill: #000000; fill-rule: ; opacity: 1;">e</tspan><tspan x="-41.56" y="8.98" style="stroke: none; stroke-width: 0; stroke-dasharray: none; stroke-linecap: butt; stroke-linejoin: miter; stroke-miterlimit: 4; fill: #000000; fill-rule: ; opacity: 1;">y</tspan><tspan x="-20.9" y="8.98" style="stroke: none; stroke-width: 0; stroke-dasharray: none; stroke-linecap: butt; stroke-linejoin: miter; stroke-miterlimit: 4; fill: #000000; fill-rule: ; opacity: 1;"> </tspan><tspan x="-10.98" y="8.98" style="stroke: none; stroke-width: 0; stroke-dasharray: none; stroke-linecap: butt; stroke-linejoin: miter; stroke-miterlimit: 4; fill: #000000; fill-rule: ; opacity: 1;">o</tspan><tspan x="11.46" y="8.98" style="stroke: none; stroke-width: 0; stroke-dasharray: none; stroke-linecap: butt; stroke-linejoin: miter; stroke-miterlimit: 4; fill: #000000; fill-rule: ; opacity: 1;">f</tspan><tspan x="24.57" y="8.98" style="stroke: none; stroke-width: 0; stroke-dasharray: none; stroke-linecap: butt; stroke-linejoin: miter; stroke-miterlimit: 4; fill: #000000; fill-rule: ; opacity: 1;"> </tspan><tspan x="34.49" y="8.98" style="stroke: none; stroke-width: 0; stroke-dasharray: none; stroke-linecap: butt; stroke-linejoin: miter; stroke-miterlimit: 4; fill: #000000; fill-rule: ; opacity: 1;">h</tspan><tspan x="57.97" y="8.98" style="stroke: none; stroke-width: 0; stroke-dasharray: none; stroke-linecap: butt; stroke-linejoin: miter; stroke-miterlimit: 4; fill: #000000; fill-rule: ; opacity: 1;">a</tspan><tspan x="81.7" y="8.98" style="stroke: none; stroke-width: 0; stroke-dasharray: none; stroke-linecap: butt; stroke-linejoin: miter; stroke-miterlimit: 4; fill: #000000; fill-rule: ; opacity: 1;">p</tspan><tspan x="104.24" y="8.98" style="stroke: none; stroke-width: 0; stroke-dasharray: none; stroke-linecap: butt; stroke-linejoin: miter; stroke-miterlimit: 4; fill: #000000; fill-rule: ; opacity: 1;">p</tspan><tspan x="126.78" y="8.98" style="stroke: none; stroke-width: 0; stroke-dasharray: none; stroke-linecap: butt; stroke-linejoin: miter; stroke-miterlimit: 4; fill: #000000; fill-rule: ; opacity: 1;">i</tspan><tspan x="133.16" y="8.98" style="stroke: none; stroke-width: 0; stroke-dasharray: none; stroke-linecap: butt; stroke-linejoin: miter; stroke-miterlimit: 4; fill: #000000; fill-rule: ; opacity: 1;">n</tspan><tspan x="155.76" y="8.98" style="stroke: none; stroke-width: 0; stroke-dasharray: none; stroke-linecap: butt; stroke-linejoin: miter; stroke-miterlimit: 4; fill: #000000; fill-rule: ; opacity: 1;">e</tspan><tspan x="178.03" y="8.98" style="stroke: none; stroke-width: 0; stroke-dasharray: none; stroke-linecap: butt; stroke-linejoin: miter; stroke-miterlimit: 4; fill: #000000; fill-rule: ; opacity: 1;">s</tspan><tspan x="198.03" y="8.98" style="stroke: none; stroke-width: 0; stroke-dasharray: none; stroke-linecap: butt; stroke-linejoin: miter; stroke-miterlimit: 4; fill: #000000; fill-rule: ; opacity: 1;">s</tspan></text>
 </g>
</svg>